# xmcd
#
# Track frame offsets: 
#        150
#        63719
#        104633
#        139783
#        175103
#        215648
#        248728
#        285560
#
# Disc length: 4334 seconds
#
# Revision: 0
# Processed by: cddbd v1.5.2PL0 Copyright (c) Steve Scherf et al.
# Submitted via: ExactAudioCopyFreeDBPlugin 1.0 GR/01.08.2011
#
DISCID=7c10ec08
DTITLE=de Miwwel and Kichechef - d'Kachplack vum Kichechef
DYEAR=2006
DGENRE=Folk/Rock
TTITLE0=Lëtzebuerger Kascht
TTITLE1=France - Musette
TTITLE2=Italia - Dolce Vita
TTITLE3=Asia - Sushisong
TTITLE4=España - Flamenco del Chef
TTITLE5=Portugal - Fado
TTITLE6=Oriental - Couccous
TTITLE7=Country Grill
EXTD=
EXTT0=
EXTT1=
EXTT2=
EXTT3=
EXTT4=
EXTT5=
EXTT6=
EXTT7=
PLAYORDER=
